<?xml version="1.0" standalone="no"?>
<!DOCTYPE svg PUBLIC "-//W3C//DTD SVG 20010904//EN"
 "http://www.w3.org/TR/2001/REC-SVG-20010904/DTD/svg10.dtd">
<svg version="1.0" xmlns="http://www.w3.org/2000/svg"
 width="700.000000pt" height="700.000000pt" viewBox="0 0 700.000000 700.000000"
 preserveAspectRatio="xMidYMid meet">
<metadata>
Created by potrace 1.11, written by Peter Selinger 2001-2013
</metadata>
<g transform="translate(0.000000,700.000000) scale(0.100000,-0.100000)"
fill="#000000" stroke="none">
<path d="M4919 6996 c-2 -2 -29 -7 -60 -10 -31 -4 -71 -11 -88 -16 -17 -5 -35
-9 -39 -10 -61 -7 -197 -58 -302 -112 -320 -163 -574 -472 -670 -812 -24 -86
-29 -110 -32 -146 l-2 -25 -1554 0 c-926 0 -1556 -4 -1560 -9 -3 -5 -6 -41 -7
-80 -3 -82 21 -160 76 -252 41 -68 152 -185 232 -243 56 -41 244 -161 252
-161 2 0 55 -32 117 -71 498 -315 761 -545 856 -747 27 -57 27 -59 33 -357 5
-240 10 -312 23 -359 43 -147 125 -269 248 -369 56 -46 184 -113 232 -123 20
-3 37 -11 38 -18 0 -6 2 -486 3 -1066 l1 -1055 -25 -11 c-44 -18 -204 -72
-241 -80 -19 -4 -39 -9 -45 -10 -112 -31 -352 -77 -455 -89 -86 -10 -109 -14
-194 -36 -90 -23 -131 -42 -139 -64 -5 -12 2 -15 36 -15 836 -2 2500 0 2503 3
2 2 2 12 -2 21 -4 10 -42 27 -103 46 -92 28 -115 32 -226 45 -27 3 -61 8 -75
10 -14 3 -41 7 -60 10 -194 31 -592 136 -624 166 -6 6 -13 1974 -7 2122 1 9 9
17 19 17 24 0 152 62 210 102 101 70 196 187 245 304 49 115 56 169 57 451 1
288 6 321 61 408 76 120 240 284 372 374 l49 33 36 -33 c20 -19 43 -41 52 -49
69 -71 269 -193 392 -240 188 -73 346 -99 555 -93 444 12 874 271 1105 667 79
136 142 319 168 488 13 90 4 339 -15 423 -9 39 -18 80 -21 93 -10 51 -66 188
-108 268 -127 239 -329 438 -573 566 -90 47 -248 101 -359 124 -69 13 -375 29
-385 20z"/>
<path d="M4031 2499 c-39 -15 -49 -28 -44 -50 12 -46 43 -49 509 -49 390 -1
440 -3 466 -18 37 -22 35 -54 -5 -83 -1 -1 -69 -4 -150 -8 -140 -6 -150 -7
-168 -29 -25 -32 -11 -58 39 -72 53 -14 1398 -14 1441 1 46 16 59 46 32 73
-21 20 -33 21 -284 26 -144 3 -270 9 -280 14 -21 10 -36 36 -30 54 8 21 58 41
112 43 58 3 106 35 95 64 -18 45 -13 45 -886 44 -511 0 -832 -4 -847 -10z"/>
<path d="M3901 2229 c-26 -3 -49 -13 -58 -24 -12 -17 -11 -22 7 -40 19 -19 33
-20 194 -20 180 0 206 6 206 45 0 31 -41 41 -176 43 -71 1 -149 -1 -173 -4z"/>
<path d="M1114 1720 c-28 -11 -36 -36 -17 -52 12 -10 81 -14 288 -16 246 -3
274 -5 289 -21 13 -15 14 -20 3 -36 -11 -14 -30 -18 -93 -20 -43 -1 -87 -6
-96 -10 -24 -10 -23 -42 1 -55 13 -6 171 -10 445 -10 373 0 426 2 440 16 20
20 20 28 0 45 -12 10 -57 14 -163 16 -80 1 -151 2 -158 2 -7 1 -17 10 -23 20
-13 25 11 51 45 51 33 0 75 20 75 36 0 8 -10 20 -22 28 -19 12 -101 14 -508
14 -267 0 -494 -4 -506 -8z"/>
<path d="M3364 421 c-23 -11 -45 -24 -49 -31 -13 -21 4 -55 37 -75 32 -19 54
-20 663 -21 628 -1 630 -1 673 -23 39 -20 43 -25 40 -53 -2 -24 -11 -35 -40
-51 -33 -16 -63 -19 -222 -21 -183 -3 -186 -3 -220 -29 -19 -15 -33 -34 -32
-43 4 -29 44 -61 83 -68 21 -3 480 -6 1020 -6 883 0 987 2 1023 16 53 21 67
47 45 80 -29 45 -50 48 -416 49 -319 1 -348 3 -384 21 -48 23 -64 47 -49 71
19 30 79 53 145 57 84 4 136 26 145 62 8 33 -17 58 -74 74 -24 6 -441 10
-1192 10 -1107 -1 -1157 -1 -1196 -19z"/>
</g>
</svg>
