<svg width="209" height="147" viewBox="0 0 209 147" fill="none" xmlns="http://www.w3.org/2000/svg">
<path d="M208 106.485V41.983C208 39.8899 206.696 38.0183 204.733 37.2929L108.2 1.62804C107.102 1.22226 105.896 1.2148 104.792 1.60694L4.32539 37.318C2.33177 38.0266 1 39.9134 1 42.0292V106.439C1 108.57 2.35104 110.467 4.36522 111.164L104.833 145.923C105.912 146.296 107.086 146.289 108.16 145.903L204.692 111.19C206.677 110.476 208 108.594 208 106.485Z" stroke="#E9C261"/>
<path d="M15 47L197 47M15 101L197 101" stroke="#E9C261"/>
<path d="M79 121.5L90 115" stroke="#E9C261"/>
<path d="M122.5 115.097L133.456 121.671" stroke="#E9C261"/>
<path d="M83.0393 127.03L92.3286 118.257" stroke="#E9C261"/>
<path d="M95.64 121L88.0195 131.256" stroke="#E9C261"/>
<path d="M98.648 123L93.1096 134.514" stroke="#E9C261"/>
<path d="M102.963 124L100.275 136.491" stroke="#E9C261"/>
<path d="M106.115 124L106.089 136.777" stroke="#E9C261"/>
<path d="M110.284 124L112.603 136.565" stroke="#E9C261"/>
<path d="M113.837 123L118.952 134.708" stroke="#E9C261"/>
<path d="M117.5 120.807L125.315 130.915" stroke="#E9C261"/>
<path d="M119.916 118.337L129.82 126.409" stroke="#E9C261"/>
<path d="M79 25.2769L90 31.7769" stroke="#E9C261"/>
<path d="M122.5 31.6799L133.456 25.1057" stroke="#E9C261"/>
<path d="M83.0393 19.7473L92.3286 28.52" stroke="#E9C261"/>
<path d="M95.64 25.777L88.0195 15.5213" stroke="#E9C261"/>
<path d="M98.648 23.7767L93.1096 12.2625" stroke="#E9C261"/>
<path d="M102.963 22.7769L100.275 10.2861" stroke="#E9C261"/>
<path d="M106.115 22.7769L106.089 10" stroke="#E9C261"/>
<path d="M110.284 22.7769L112.603 10.2122" stroke="#E9C261"/>
<path d="M113.837 23.777L118.952 12.0684" stroke="#E9C261"/>
<path d="M117.5 25.9699L125.315 15.862" stroke="#E9C261"/>
<path d="M119.916 28.4401L129.82 20.3675" stroke="#E9C261"/>
</svg>
