<svg width="208" height="192" viewBox="0 0 208 192" fill="none" xmlns="http://www.w3.org/2000/svg">
<path d="M207 140.68V52.6028C207 50.6943 205.914 48.9523 204.2 48.1127L108.148 1.05713C106.784 0.388955 105.191 0.376933 103.817 1.02446L3.86829 48.1326C2.11731 48.9579 1 50.7197 1 52.6554V140.628C1 142.582 2.13874 144.357 3.91514 145.172L103.865 191.025C105.212 191.643 106.764 191.631 108.101 190.993L204.152 145.193C205.892 144.363 207 142.607 207 140.68Z" stroke="#E9C261"/>
<path d="M15 60L197 60M15 134L197 134" stroke="#E9C261"/>
<path d="M79 160.5L90 154" stroke="#E9C261"/>
<path d="M122.5 154.097L133.456 160.671" stroke="#E9C261"/>
<path d="M83.0393 166.03L92.3286 157.257" stroke="#E9C261"/>
<path d="M95.64 160L88.0195 170.256" stroke="#E9C261"/>
<path d="M98.648 162L93.1096 173.514" stroke="#E9C261"/>
<path d="M102.963 163L100.275 175.491" stroke="#E9C261"/>
<path d="M106.115 163L106.089 175.777" stroke="#E9C261"/>
<path d="M110.284 163L112.603 175.565" stroke="#E9C261"/>
<path d="M113.837 162L118.952 173.708" stroke="#E9C261"/>
<path d="M117.5 159.807L125.315 169.915" stroke="#E9C261"/>
<path d="M119.916 157.337L129.82 165.409" stroke="#E9C261"/>
<path d="M79 33.2769L90 39.7769" stroke="#E9C261"/>
<path d="M122.5 39.6799L133.456 33.1057" stroke="#E9C261"/>
<path d="M83.0393 27.7473L92.3286 36.52" stroke="#E9C261"/>
<path d="M95.64 33.777L88.0195 23.5213" stroke="#E9C261"/>
<path d="M98.648 31.7767L93.1096 20.2625" stroke="#E9C261"/>
<path d="M102.963 30.7769L100.275 18.2861" stroke="#E9C261"/>
<path d="M106.115 30.7769L106.089 18" stroke="#E9C261"/>
<path d="M110.284 30.7769L112.603 18.2122" stroke="#E9C261"/>
<path d="M113.837 31.777L118.952 20.0684" stroke="#E9C261"/>
<path d="M117.5 33.9699L125.315 23.862" stroke="#E9C261"/>
<path d="M119.916 36.4401L129.82 28.3675" stroke="#E9C261"/>
</svg>
